<svg xmlns="http://www.w3.org/2000/svg" version="1.1" xmlns:xlink="http://www.w3.org/1999/xlink" xmlns:svgjs="http://svgjs.dev/svgjs" width="1000" height="1000" viewBox="0 0 1000 1000"><rect width="1000" height="1000" fill="#000000"></rect><g transform="matrix(0.7,0,0,0.7,149.57575757575756,426.4535462485377)"><svg viewBox="0 0 396 83" data-background-color="#ffffff" preserveAspectRatio="xMidYMid meet" height="209" width="1000" xmlns="http://www.w3.org/2000/svg" xmlns:xlink="http://www.w3.org/1999/xlink"><g id="tight-bounds" transform="matrix(1,0,0,1,0.2400000000000091,0.22491907977698133)"><svg viewBox="0 0 395.52 82.55016149144734" height="82.55016149144734" width="395.52"><g><svg viewBox="0 0 543.4670212810927 113.42862654740607" height="82.55016149144734" width="395.52"><g transform="matrix(1,0,0,1,147.94702128109265,15.67645996422182)"><svg viewBox="0 0 395.52 82.07570661896243" height="82.07570661896243" width="395.52"><g id="textblocktransform"><svg viewBox="0 0 395.52 82.07570661896243" height="82.07570661896243" width="395.52" id="textblock"><g><svg viewBox="0 0 395.52 82.07570661896243" height="82.07570661896243" width="395.52"><g transform="matrix(1,0,0,1,0,0)"><svg width="395.52" viewBox="2.200000047683716 -36.209999084472656 177.40000915527344 36.81999969482422" height="82.07570661896243" data-palette-color="#636365"><g class="wordmark-text-0" data-fill-palette-color="primary" id="text-0"><path d="M27.2-10.84L27.2-10.84Q27.2-7.52 25.51-4.94 23.83-2.37 20.65-0.94 17.48 0.49 13.21 0.49L13.21 0.49Q9.64 0.49 7.23-0.01 4.81-0.51 2.2-1.76L2.2-1.76 2.2-10.35Q4.96-8.94 7.93-8.14 10.91-7.35 13.4-7.35L13.4-7.35Q15.55-7.35 16.55-8.09 17.55-8.84 17.55-10.01L17.55-10.01Q17.55-10.74 17.15-11.29 16.75-11.84 15.86-12.4 14.97-12.96 11.11-14.7L11.11-14.7Q7.62-16.28 5.87-17.77 4.13-19.26 3.28-21.19 2.44-23.12 2.44-25.76L2.44-25.76Q2.44-30.69 6.03-33.45 9.62-36.21 15.89-36.21L15.89-36.21Q21.44-36.21 27.2-33.64L27.2-33.64 24.24-26.2Q19.24-28.49 15.6-28.49L15.6-28.49Q13.72-28.49 12.87-27.83 12.01-27.17 12.01-26.2L12.01-26.2Q12.01-25.15 13.1-24.32 14.18-23.49 18.99-21.29L18.99-21.29Q23.61-19.21 25.4-16.83 27.2-14.45 27.2-10.84ZM66.7-35.69L66.7 0 54.05 0 41.01-25.15 40.79-25.15Q41.26-19.21 41.26-16.09L41.26-16.09 41.26 0 32.71 0 32.71-35.69 45.31-35.69 58.3-10.89 58.44-10.89Q58.1-16.28 58.1-19.56L58.1-19.56 58.1-35.69 66.7-35.69ZM106.86 0L96.31 0 94.55-6.69 82.95-6.69 81.15 0 70.55 0 82.2-35.84 95.06-35.84 106.86 0ZM84.96-14.6L92.55-14.6 91.01-20.46Q90.47-22.41 89.7-25.51 88.94-28.61 88.69-29.96L88.69-29.96Q88.47-28.71 87.82-25.85 87.18-23 84.96-14.6L84.96-14.6ZM136.61-24.34L136.61-24.34Q136.61-18.36 133.09-15.1 129.56-11.84 123.06-11.84L123.06-11.84 120.35-11.84 120.35 0 110.71 0 110.71-35.69 123.06-35.69Q129.83-35.69 133.22-32.74 136.61-29.79 136.61-24.34ZM120.35-27.91L120.35-19.7 122.11-19.7Q124.28-19.7 125.57-20.92 126.85-22.14 126.85-24.29L126.85-24.29Q126.85-27.91 122.84-27.91L122.84-27.91 120.35-27.91ZM165.64-10.84L165.64-10.84Q165.64-7.52 163.95-4.94 162.27-2.37 159.1-0.94 155.92 0.49 151.65 0.49L151.65 0.49Q148.09 0.49 145.67-0.01 143.25-0.51 140.64-1.76L140.64-1.76 140.64-10.35Q143.4-8.94 146.38-8.14 149.36-7.35 151.85-7.35L151.85-7.35Q153.99-7.35 154.99-8.09 156-8.84 156-10.01L156-10.01Q156-10.74 155.59-11.29 155.19-11.84 154.3-12.4 153.41-12.96 149.55-14.7L149.55-14.7Q146.06-16.28 144.31-17.77 142.57-19.26 141.73-21.19 140.88-23.12 140.88-25.76L140.88-25.76Q140.88-30.69 144.47-33.45 148.06-36.21 154.34-36.21L154.34-36.21Q159.88-36.21 165.64-33.64L165.64-33.64 162.69-26.2Q157.68-28.49 154.04-28.49L154.04-28.49Q152.16-28.49 151.31-27.83 150.45-27.17 150.45-26.2L150.45-26.2Q150.45-25.15 151.54-24.32 152.63-23.49 157.44-21.29L157.44-21.29Q162.05-19.21 163.84-16.83 165.64-14.45 165.64-10.84ZM169.4-4.05L169.4-4.05Q169.4-6.3 170.73-7.52 172.06-8.74 174.6-8.74L174.6-8.74Q177.01-8.74 178.31-7.52 179.6-6.3 179.6-4.05L179.6-4.05Q179.6-1.86 178.27-0.62 176.94 0.61 174.6 0.61L174.6 0.61Q172.18 0.61 170.79-0.61 169.4-1.83 169.4-4.05Z" fill="#ffffff" data-fill-palette-color="primary"></path></g></svg></g></svg></g></svg></g></svg></g><g><svg viewBox="0 0 128.57091676531448 113.42862654740607" height="113.42862654740607" width="128.57091676531448"><g><svg xmlns="http://www.w3.org/2000/svg" xmlns:xlink="http://www.w3.org/1999/xlink" version="1.1" x="0" y="0" viewBox="4.995999813079834 10.298999786376953 90.00299835205078 79.40299987792969" enable-background="new 0 0 100 100" xml:space="preserve" height="113.42862654740607" width="128.57091676531448" class="icon-icon-0" data-fill-palette-color="accent" id="icon-0"><path d="M92.748 32.8H58.997v-2.7h0.445c2.236 0 4.055-1.819 4.055-4.055V14.354c0-2.236-1.819-4.055-4.055-4.055H40.552c-2.236 0-4.055 1.819-4.055 4.055v11.691c0 2.236 1.819 4.055 4.055 4.055h0.445v2.7H29.295c-0.021-2.174-1.484-4.5-3.841-4.5h-2.256c-2.363 0-3.779 2.28-3.799 4.5H7.246c-1.243 0-2.25 1.007-2.25 2.25v44.728c0 0.963 0.613 1.82 1.525 2.131l6.092 2.073c0.233 0.079 0.478 0.12 0.725 0.12h22.154c3.971 3.482 9.167 5.6 14.851 5.6s10.88-2.118 14.851-5.6h22.154c0.276 0 0.549-0.051 0.806-0.149l5.401-2.073c0.87-0.334 1.444-1.169 1.444-2.101V35.05C94.998 33.807 93.991 32.8 92.748 32.8zM40.997 14.799h18v10.8h-18V14.799zM45.497 31h9v1.8h-9V31zM43.247 37.3h13.5 24.751v42.301H69.136c2.376-3.572 3.764-7.855 3.764-12.457 0-12.438-10.12-22.558-22.558-22.558s-22.557 10.12-22.557 22.558c0 4.602 1.388 8.885 3.764 12.457H18.497V37.3H43.247zM9.496 78.167V37.3h4.5v42.301h-0.286L9.496 78.167zM38.389 80.641c-0.207-0.323-0.496-0.584-0.836-0.766-3.252-3.267-5.267-7.768-5.267-12.732 0-9.957 8.1-18.058 18.057-18.058S68.4 57.187 68.4 67.143 60.3 85.201 50.343 85.201C45.756 85.201 41.577 83.468 38.389 80.641zM90.498 78.232l-3.568 1.369h-0.932V37.3h4.5V78.232z" fill="#ffffff" data-fill-palette-color="accent"></path><path d="M50.343 51.355c-8.706 0-15.788 7.083-15.788 15.789 0 8.705 7.082 15.788 15.788 15.788s15.788-7.082 15.788-15.788C66.131 58.438 59.048 51.355 50.343 51.355zM50.343 78.431c-6.224 0-11.288-5.063-11.288-11.288 0-6.225 5.064-11.288 11.288-11.288s11.288 5.064 11.288 11.288C61.631 73.368 56.567 78.431 50.343 78.431z" fill="#ffffff" data-fill-palette-color="accent"></path><path d="M50.343 60.374c-3.732 0-6.769 3.037-6.769 6.769 0 3.732 3.037 6.769 6.769 6.769 3.732 0 6.769-3.037 6.769-6.769C57.112 63.411 54.075 60.374 50.343 60.374zM50.343 69.412c-1.251 0-2.269-1.018-2.269-2.269 0-1.251 1.018-2.269 2.269-2.269 1.251 0 2.269 1.018 2.269 2.269C52.612 68.395 51.594 69.412 50.343 69.412z" fill="#ffffff" data-fill-palette-color="accent"></path><path d="M74.748 51.25c2.481 0 4.5-2.019 4.5-4.5s-2.019-4.5-4.5-4.5c-2.481 0-4.5 2.019-4.5 4.5S72.267 51.25 74.748 51.25z" fill="#ffffff" data-fill-palette-color="accent"></path></svg></g></svg></g></svg></g><defs></defs></svg><rect width="395.52" height="82.55016149144734" fill="none" stroke="none" visibility="hidden"></rect></g></svg></g></svg>